<svg enable-background="new 0 0 200 76" height="76" viewBox="0 0 200 76" width="200" xmlns="http://www.w3.org/2000/svg"><g clip-rule="evenodd" fill="#333" fill-rule="evenodd"><path d="m137.721 17.031c4.151 12.917 8.072 26.063 11.993 39.21h16.606l-19.835-53.048h-17.76l-13.607 36.441-7.15-10.84 16.376-25.602h-17.759l-9.227 16.375-9.225-16.374h-17.99l16.606 25.371-7.38 11.071-13.608-36.442h-17.99l-19.835 53.048h16.837c3.69-13.146 7.842-26.293 11.763-39.21 4.151 12.917 8.072 26.063 11.993 39.21h17.068 1.153l10.379-17.067 10.379 17.067h1.384 17.067c3.92-13.146 7.841-26.293 11.762-39.21z"/><path d="m37.161 72.386c-.691.462-1.384.923-2.076 1.153-.461.232-1.153.461-1.845.461-1.153 0-2.076-.461-2.768-.922-.461-.462-.923-1.384-.923-2.076s.23-1.153.461-1.615c.23-.229.461-.691.922-.922.231-.23.692-.461 1.153-.691.461 0 .922 0 1.614-.231 1.384 0 2.537-.23 3.229-.461 0-.23 0-.462 0-.462 0-.922-.231-1.384-.461-1.613-.461-.462-1.153-.692-2.076-.692s-1.384.23-1.845.461c-.461.461-.692.923-.923 1.614l-1.614-.23c0-.691.23-1.384.692-1.845.23-.461.922-.692 1.614-.923.692-.461 1.384-.461 2.307-.461.922 0 1.614 0 2.307.23.461.23.922.461 1.153.923.231.23.461.691.461 1.152.23.231.23.923.23 1.615v2.307 3.229c0 .462.231.923.461 1.385h-1.845c-.228-.463-.228-.924-.228-1.386zm-.23-3.921c-.692.23-1.615.462-2.999.692-.692 0-1.153.229-1.384.229-.461.231-.692.462-.692.692-.231.23-.461.461-.461.692 0 .461.23.923.692 1.384.23.23.922.461 1.614.461s1.153-.23 1.845-.461c.461-.461.923-.692 1.153-1.384 0-.231.231-.923.231-1.614v-.691zm3.228 5.306v-10.611h1.615v1.614c.461-.691.692-1.153 1.153-1.614.23-.23.691-.23 1.153-.23s1.154.23 1.845.461l-.691 1.845c-.461-.461-.923-.461-1.384-.461-.231 0-.692 0-.922.231-.231.229-.461.691-.692 1.152s-.231 1.153-.231 2.076v5.536h-1.846zm12.455-3.922 1.614.23c-.231 1.153-.692 2.076-1.384 2.769-.922.691-1.844 1.152-2.998 1.152-1.384 0-2.537-.461-3.459-1.384-.923-1.153-1.153-2.307-1.153-4.151 0-1.153 0-2.076.461-2.998.461-.923.922-1.384 1.614-1.846.923-.461 1.615-.691 2.537-.691 1.153 0 2.076.23 2.768.923.922.461 1.383 1.383 1.383 2.306l-1.614.461c-.23-.922-.461-1.384-.923-1.613-.461-.462-.922-.692-1.383-.692-.922 0-1.615.461-2.307 1.153-.461.461-.922 1.614-.922 2.998s.461 2.307.922 2.998c.461.692 1.153.923 2.076.923.692 0 1.384-.23 1.845-.691.462-.233.692-.925.923-1.847zm1.845 3.922v-14.532h1.845v5.074c.922-.923 1.845-1.384 3.229-1.384.691 0 1.383.23 1.845.461.692.23 1.153.692 1.384 1.153.231.691.231 1.384.231 2.537v6.689h-1.615v-6.689c0-.923-.23-1.614-.692-2.075-.461-.462-.923-.462-1.614-.462-.461 0-.923 0-1.384.23-.461.461-.922.692-1.153 1.153s-.231 1.153-.231 2.076v5.767h-1.845zm10.148-12.456v-2.076h1.614v2.076zm0 12.456v-10.611h1.614v10.61h-1.614zm6.92-1.616.461 1.615c-.692 0-1.153 0-1.384 0-.691 0-1.153 0-1.614-.231-.231-.23-.461-.461-.692-.923-.231-.23-.231-.922-.231-2.076v-5.996h-1.384v-1.384h1.384v-2.537l1.846-1.153v3.69h1.614v1.384h-1.614v6.228.923c0 .23.23.23.23.23.231.23.461.23.692.23zm7.842-1.845 1.845.23c-.461 1.154-.923 1.846-1.615 2.538-.922.461-1.845.922-2.998.922-1.614 0-2.768-.461-3.69-1.614-.922-.923-1.384-2.076-1.384-3.921 0-1.846.461-2.998 1.384-4.151.922-.923 2.076-1.384 3.459-1.384 1.384 0 2.537.461 3.459 1.384.923.922 1.384 2.306 1.384 4.151v.462h-7.842c0 1.152.461 2.075.922 2.536.692.692 1.384.923 2.306.923.461 0 1.154 0 1.615-.461.463-.231.693-.923 1.155-1.615zm-5.997-2.998h5.997c-.231-.692-.461-1.384-.692-1.845-.692-.692-1.384-1.153-2.307-1.153-.692 0-1.384.23-2.076.922-.461.461-.691 1.153-.922 2.076zm15.684 2.537 1.614.23c-.231 1.153-.692 2.076-1.384 2.769-.923.691-1.845 1.152-2.998 1.152-1.384 0-2.537-.461-3.459-1.384-.922-1.153-1.384-2.307-1.384-4.151 0-1.153.231-2.076.692-2.998.461-.923.922-1.384 1.615-1.846.922-.461 1.614-.691 2.537-.691 1.153 0 2.076.23 2.768.923.691.461 1.153 1.383 1.383 2.306l-1.614.461c-.23-.922-.461-1.384-.922-1.613-.461-.462-.923-.692-1.384-.692-.922 0-1.845.461-2.307 1.153-.461.461-.922 1.614-.922 2.998s.461 2.307.922 2.998c.461.692 1.153.923 2.076.923.692 0 1.384-.23 1.845-.691.46-.233.691-.925.922-1.847zm5.765 2.306.231 1.615c-.461 0-.922 0-1.384 0s-1.153 0-1.384-.231c-.461-.23-.691-.461-.691-.923-.231-.23-.231-.922-.231-2.076v-5.996h-1.384v-1.384h1.384v-2.537l1.615-1.153v3.69h1.845v1.384h-1.845v6.228c0 .461 0 .691.23.923 0 .23 0 .23.23.23.231.23.461.23.692.23zm7.381 1.616v-1.615c-.923 1.153-1.845 1.844-3.228 1.844-.692 0-1.384-.229-1.846-.461-.461-.23-.922-.461-1.153-.923-.23-.23-.461-.691-.692-1.384 0-.23 0-.692 0-1.614v-6.458h1.845v5.767 1.845c.23.461.461.923.692 1.153.461.23.923.461 1.383.461.461 0 1.154-.23 1.615-.461.461-.23.691-.692.922-1.153.231-.462.231-1.153.231-2.076v-5.536h1.845v10.61h-1.614zm2.998 0v-10.611h1.615v1.614c.461-.691.922-1.153 1.152-1.614.462-.23.692-.23 1.153-.23.692 0 1.153.23 1.846.461l-.692 1.845c-.23-.461-.691-.461-1.153-.461-.461 0-.691 0-1.153.231-.23.229-.461.691-.691 1.152 0 .461-.231 1.153-.231 2.076v5.536h-1.846zm12.686-3.461 1.846.23c-.231 1.154-.692 1.846-1.615 2.538-.691.461-1.614.922-2.998.922s-2.768-.461-3.69-1.614c-.691-.923-1.153-2.076-1.153-3.921 0-1.846.462-2.998 1.384-4.151.692-.923 2.076-1.384 3.46-1.384s2.537.461 3.46 1.384c.922.922 1.383 2.306 1.383 4.151v.462h-7.842c0 1.152.231 2.075.923 2.536.462.692 1.385.923 2.076.923s1.384 0 1.845-.461c.46-.231.69-.923.921-1.615zm-5.767-2.998h5.767c0-.692-.23-1.384-.461-1.845-.692-.692-1.385-1.153-2.307-1.153-.923 0-1.614.23-2.076.922-.461.461-.923 1.153-.923 2.076z"/><path d="m119.961 70.54 1.846-.23c0 .692.461 1.153.923 1.615.461.23.922.461 1.845.461.692 0 1.384 0 1.846-.461.23-.23.461-.692.461-1.153 0-.462 0-.692-.461-.923-.231-.23-.923-.462-1.846-.691-1.384-.23-2.075-.462-2.768-.692-.461-.23-.692-.691-1.153-1.153-.23-.461-.23-.923-.23-1.384s0-.922.23-1.384c.23-.23.461-.691.923-.923.23-.23.691-.461 1.153-.461.461-.23.922-.23 1.383-.23.923 0 1.615 0 2.308.23.691.461 1.153.692 1.383 1.153.231.23.462.922.462 1.614l-1.614.23c0-.691-.23-.923-.692-1.384-.461-.23-.923-.461-1.614-.461-.922 0-1.384.23-1.845.461-.231.231-.462.692-.462.923s0 .461.23.691c.231.23.462.23.692.462.23 0 .691.23 1.614.461 1.153.23 2.076.692 2.537.923.462 0 .923.461 1.153.923.461.229.461.922.461 1.383 0 .692-.23 1.154-.461 1.615-.462.692-.922 1.153-1.614 1.384-.462.231-1.384.461-2.076.461-1.384 0-2.537-.461-3.229-.922-.693-.692-1.155-1.384-1.385-2.538zm13.608 1.615.23 1.615c-.461 0-.923 0-1.384 0-.692 0-1.152 0-1.384-.231-.461-.23-.691-.461-.923-.923 0-.23-.23-.922-.23-2.076v-5.996h-1.153v-1.384h1.153v-2.537l1.845-1.153v3.69h1.846v1.384h-1.846v6.228.923c.23.23.23.23.462.23 0 .23.23.23.461.23s.462 0 .923 0zm7.381 1.616v-1.615c-.923 1.153-2.076 1.845-3.46 1.845-.461 0-1.153-.229-1.615-.461-.69-.23-.922-.461-1.383-.923-.23-.23-.23-.691-.462-1.384 0-.23 0-.692 0-1.614v-6.459h1.615v5.767c0 .922.229 1.613.229 1.845 0 .461.231.923.692 1.153.23.23.692.461 1.384.461.462 0 .923-.23 1.385-.461.461-.23.922-.692 1.152-1.153 0-.462.23-1.153.23-2.076v-5.536h1.846v10.61h-1.613zm9.917 0v-1.385c-.691.923-1.614 1.614-2.998 1.614-.922 0-1.614-.229-2.307-.691-.691-.461-1.153-1.153-1.614-2.076-.461-.692-.691-1.614-.691-2.768s.23-2.076.691-2.998c.23-.692.691-1.384 1.384-1.846.692-.461 1.615-.691 2.537-.691.461 0 1.153.23 1.614.461.462.23.923.462 1.153.923v-5.074h1.845v14.531zm-5.765-5.306c0 1.384.23 2.307.923 2.998.461.692 1.153.923 2.076.923.69 0 1.383-.23 1.845-.923.691-.691.922-1.614.922-2.998s-.23-2.307-.922-2.998c-.462-.692-1.154-1.153-2.076-1.153-.691 0-1.384.461-1.845 1.153-.693.461-.923 1.614-.923 2.998zm8.764-7.15v-2.076h1.845v2.076zm0 12.456v-10.611h1.845v10.61h-1.845zm2.767-5.306c0-2.076.462-3.459 1.615-4.382.923-.692 1.846-1.153 3.229-1.153 1.385 0 2.538.461 3.46 1.384.923.922 1.384 2.306 1.384 3.921 0 1.384-.23 2.537-.461 3.229-.462.692-1.153 1.385-1.845 1.846-.692.462-1.615.691-2.538.691-1.383 0-2.768-.461-3.689-1.614-.693-.924-1.155-2.308-1.155-3.922zm1.846 0c0 1.384.23 2.307.692 2.998.692.692 1.384.923 2.306.923.923 0 1.615-.23 2.076-.923.692-.691.922-1.614.922-2.998s-.229-2.307-.922-2.998c-.461-.692-1.153-1.153-2.076-1.153-.922 0-1.613.461-2.306 1.153-.462.691-.692 1.614-.692 2.998z"/></g></svg>